<?xml version="1.0" encoding="utf-8"?>
<!-- Generator: Adobe Illustrator 25.0.0, SVG Export Plug-In . SVG Version: 6.00 Build 0)  -->
<svg version="1.1" id="Layer_1" xmlns="http://www.w3.org/2000/svg" xmlns:xlink="http://www.w3.org/1999/xlink" x="0px" y="0px"
	 viewBox="0 0 471.4 471.3" style="enable-background:new 0 0 471.4 471.3;" xml:space="preserve">
<style type="text/css">
	.st0{fill:#EDEDED;}
</style>
<path class="st0" d="M235.4,0c109.9-0.4,205.8,76.5,230.2,184.6c28.5,126.3-52,252.7-179.3,280.9c-54.9,12.1-107.6,5-157.9-20.1
	c-2.6-1.2-5.6-1.6-8.4-1c-34.8,8.4-69.5,17-104.2,25.6C3.8,473-2,467,1.3,455.1c9.3-33.1,18.6-66.3,27.7-99.5
	c0.7-2.8,0.3-5.7-0.9-8.3c-66.9-124.4-9.6-280,122-331C177.3,5.6,206.2,0.1,235.4,0z M300.7,348.1c13.5,0.6,26.3-4.6,38.5-12.5
	c15-9.8,19.2-24.4,19.2-41c0-2.3-1.9-5.8-3.9-6.8c-17-8.4-34.1-16.5-51.4-24.3c-5.9-2.6-8.3-1.3-12.4,3.9c-5.9,7.4-12,14.7-18,22.1
	c-3.4,4.3-7.4,4.9-12.4,3c-35.3-13.9-62.8-37.2-82.4-69.6c-4-6.5-3.4-8.5,1.6-14.5c5.3-6.2,10.1-12.7,14.4-19.6
	c1.5-2.4,1.6-6.7,0.5-9.4c-6.2-15.8-13.1-31.3-19.6-47c-2.7-6.4-6.9-10-14.2-9.3c-2.7,0.1-5.3,0.1-8-0.2c-7.4-0.3-13.5,2.4-18.8,7.7
	c-20.9,21.1-25.6,45.8-16.8,73.6c5.9,18.6,17.2,34.1,28.9,49.3c30.4,39.4,66.9,70.8,115.2,86.6C273.5,344.2,285.9,348.6,300.7,348.1
	L300.7,348.1z"/>
</svg>
