<svg id="Layer_1" data-name="Layer 1" xmlns="http://www.w3.org/2000/svg" viewBox="0 0 471.36 471.28"><defs><style>.cls-1{fill:#ededed;}</style></defs><path class="cls-1" d="M235.44,0C345.31-.36,441.2,76.54,465.62,184.61c28.53,126.27-52,252.69-179.31,280.9-54.86,12.15-107.57,4.95-157.9-20.07a13.35,13.35,0,0,0-8.4-.95c-34.79,8.39-69.51,17-104.25,25.6C3.84,473-2,467,1.29,455.09,10.55,422,19.93,388.8,29,355.58a12.37,12.37,0,0,0-.93-8.31c-66.89-124.43-9.62-280,122-331A234.35,234.35,0,0,1,235.44,0Zm65.23,348.14c13.45.61,26.3-4.59,38.47-12.53,15-9.78,19.2-24.41,19.21-40.95,0-2.33-1.88-5.82-3.86-6.8q-25.5-12.57-51.42-24.28c-5.88-2.64-8.27-1.28-12.41,3.89-5.92,7.41-12,14.67-18,22.07-3.44,4.27-7.43,4.93-12.43,2.95q-53-20.92-82.42-69.63c-4-6.52-3.43-8.54,1.56-14.54a173.63,173.63,0,0,0,14.42-19.6c1.48-2.39,1.59-6.69.52-9.4-6.24-15.77-13.06-31.31-19.61-47-2.67-6.37-6.92-10-14.22-9.25a56.23,56.23,0,0,1-8-.2c-7.45-.34-13.54,2.38-18.79,7.66-20.89,21.11-25.64,45.84-16.75,73.63,5.94,18.56,17.17,34.1,28.9,49.29,30.43,39.42,66.91,70.82,115.17,86.61,12.54,4.1,24.9,8.58,39.66,8.08Z" transform="translate(0 0)"/></svg>